<?xml version="1.0" encoding="UTF-8"?>
<svg width="512" height="512" version="1.1" viewBox="0 0 512 512" xmlns="http://www.w3.org/2000/svg">
<path d="m128 204.8c17.1-68.3 59.7-102.4 128-102.4 102.4 0 115.2 76.8 166.4 89.6 32 8.5 60.1-4.3 84.5-38.4-17.1 68.3-59.7 102.4-128 102.4-102.4 0-115.2-76.8-166.4-89.6-32-8.5-60.1 4.3-84.5 38.4zm-84.5 140.8c17.1-68.3 59.7-102.4 128-102.4 102.4 0 115.2 76.8 166.4 89.6 32 8.5 60.1-4.3 84.5-38.4-17.1 68.3-59.7 102.4-128 102.4-102.4 0-115.2-76.8-166.4-89.6-32-8.5-60.1 4.3-84.5 38.4z" fill="#06b6d4"/>
</svg>
