<?xml version="1.0" encoding="UTF-8"?>
<svg width="512" height="512" fill="none" version="1.1" viewBox="0 0 512 512" xmlns="http://www.w3.org/2000/svg">
<rect width="512" height="512" rx="50" fill="#3178c6"/>
<path d="m317 407v-50c8.9 0 15.9-2.3 21-6.9 5.1-4.6 7.7-11.5 7.7-20.6 0-9.1-2.6-15.9-7.7-20.6-5.1-4.6-12.1-6.9-21-6.9h-50v105h-41v-140h91c16.8 0 30.3 4.7 40.4 14 10.1 9.3 15.2 22.2 15.2 38.6 0 16.4-5 29.3-15.2 38.6-10.1 9.3-23.6 14-40.4 14h-50v35h91z" fill="#fff"/>
<path d="m150 267c17.8 0 32.4 4.7 43.9 14 11.5 9.3 17.2 22.2 17.2 38.6 0 16.4-5.7 29.3-17.2 38.6-11.5 9.3-26.1 14-43.9 14h-50v35h-41v-140zm0 70c8.9 0 15.9-2.3 21-6.9 5.1-4.6 7.7-11.5 7.7-20.6 0-9.1-2.6-15.9-7.7-20.6-5.1-4.6-12.1-6.9-21-6.9h-50v55z" fill="#fff"/>
</svg>
